IKResults
version=1
nRows=22
nColumns=13
inDegrees=yes

Units are S.I. units (second, meters, Newtons, ...)
If the header above contains a line with 'inDegrees', this indicates whether rotational values are in degrees (yes) or radians (no).

endheader
time	ground_to_pelvis_rx	ground_to_pelvis_ry	ground_to_pelvis_rz	ground_to_pelvis_tx	ground_to_pelvis_ty	ground_to_pelvis_tz	pelvis_to_femur_l	femur_l_to_tibia_l_rz	tibia_l_to_metatarsal_l_rz	pelvis_to_femur_r	femur_r_to_tibia_r_rz	tibia_r_to_metatarsal_r_rz
      5.53300000	      7.35668270	    -10.26232889	      8.13366064	     -0.64691658	     -0.40013126	     -4.43293491	    -31.07802748	     63.62898334	     15.57402838	     50.90944471	     55.12288822	      1.90311725
      5.55000000	      9.03635742	    -13.02717557	      8.66755970	     -0.65240261	     -0.39682204	     -4.41918469	    -34.48707564	     65.98205363	      7.55300395	     51.09493524	     56.32761495	      3.84850753
      5.56700000	     10.62935240	    -17.08739606	      9.37679755	     -0.65695642	     -0.39348094	     -4.40339065	    -37.89457158	     67.50788171	      2.04790254	     50.80694342	     57.17308697	      5.88218094
      5.58300000	     12.42967289	    -22.06168475	     10.32441689	     -0.66082971	     -0.38975011	     -4.38714227	    -41.87675263	     68.35422978	     -2.36419941	     50.17240712	     57.43860369	      7.72498589
      5.60000000	     13.88569482	    -28.51667572	     11.40344005	     -0.66381392	     -0.38582886	     -4.36782795	    -44.13191171	     67.08838075	     -6.54565459	     48.70394307	     57.06294336	      9.92978044
      5.61700000	     15.72892233	    -34.12289368	     12.73495126	     -0.66593682	     -0.38313507	     -4.34941609	    -47.62242364	     65.59568602	     -8.03972869	     47.90804996	     56.81498315	     12.56798729
      5.63300000	     17.57627108	    -39.08504160	     14.06340581	     -0.66831499	     -0.38137690	     -4.33204100	    -51.39347049	     63.48657078	     -7.62373196	     46.94615463	     56.71228514	     14.46618730
      5.65000000	     18.72649692	    -42.75373614	     15.04216554	     -0.67216182	     -0.38067101	     -4.31463477	    -54.34954182	     60.30141719	     -7.39281976	     45.38951319	     56.55661609	     15.35232409
      5.66700000	     20.05671696	    -44.83526058	     16.19374310	     -0.67578805	     -0.38079891	     -4.30019869	    -57.85425045	     56.72519156	     -6.14695148	     44.27958498	     56.66143538	     15.54928191
      5.68300000	     20.88422456	    -45.96405803	     16.93260662	     -0.68055430	     -0.38182750	     -4.28674900	    -60.46708413	     52.30588283	     -4.76265834	     43.12163142	     56.94746132	     15.83897962
      5.70000000	     20.89996844	    -46.31502891	     16.93026437	     -0.68735839	     -0.38334088	     -4.27385553	    -62.04723859	     47.57732861	     -2.65658298	     41.38585802	     57.10854116	     15.97475082
      5.71700000	     20.45951691	    -46.32754586	     16.41190121	     -0.69538565	     -0.38589152	     -4.26160242	    -62.70244845	     42.99651183	     -0.62459957	     39.66182622	     57.58206979	     16.20922010
      5.73300000	     19.46396799	    -46.52542103	     15.46165771	     -0.70530671	     -0.38828230	     -4.24827384	    -61.62209701	     38.38726139	      0.80101763	     37.21587353	     57.45087230	     17.18812379
      5.75000000	     18.57607880	    -46.85405904	     14.41426881	     -0.71553334	     -0.39066083	     -4.23569700	    -60.09846198	     34.62671143	      2.01117747	     34.89253554	     57.12092211	     18.52259134
      5.76700000	     19.26698600	    -46.85913863	     14.22903821	     -0.72278444	     -0.39210821	     -4.22692975	    -59.29754385	     31.56120463	      3.34618174	     34.24467790	     56.88680151	     20.61356679
      5.78300000	     17.85538991	    -47.26014093	     12.36021029	     -0.73517335	     -0.39356802	     -4.21388179	    -55.65793043	     29.72406333	      0.93727551	     31.83548301	     55.69993270	     23.94917815
      5.80000000	     15.58992193	    -47.44774488	      9.32778111	     -0.75029077	     -0.39566721	     -4.20001151	    -52.80336115	     32.42397427	     -3.15831395	     29.26120245	     54.94905389	     27.33579742
      5.81700000	     13.42550610	    -47.22275767	      6.59619280	     -0.76457367	     -0.39701665	     -4.18468085	    -50.61070119	     35.15016145	     -5.36444845	     26.70853250	     54.09132839	     30.52163446
      5.83300000	     12.74896461	    -46.47803579	      5.05253808	     -0.77584593	     -0.39669163	     -4.17167182	    -49.23147582	     37.49230330	     -7.03272390	     26.40609434	     54.85925124	     32.78960182
      5.85000000	     12.86740790	    -45.18521385	      4.21522076	     -0.78531613	     -0.39470507	     -4.15947973	    -47.98836378	     39.59857984	     -8.71331160	     28.25756855	     56.46908313	     35.57682267
      5.86700000	     14.02128636	    -43.59964787	      4.08668156	     -0.79301511	     -0.39123687	     -4.14916959	    -47.65442130	     41.17030657	     -9.22898654	     31.55996802	     57.75473225	     37.87805318
      5.88300000	     15.64870418	    -41.93886357	      4.49404434	     -0.79959565	     -0.38694902	     -4.13873617	    -47.19633966	     42.20382445	     -9.92786733	     35.30541505	     59.96783930	     35.15755460
